
<svg version="1.1" xmlns="http://www.w3.org/2000/svg" xmlns:xlink="http://www.w3.org/1999/xlink" x="0px" y="0px"
	 viewBox="0 0 131.2 112.9" style="enable-background:new 0 0 131.2 112.9;" xml:space="preserve">
<style type="text/css">
	.st0{opacity:0.6;fill:none;stroke:#FFFFFF;stroke-width:11.8792;stroke-linecap:round;stroke-miterlimit:10;}
	.st1{opacity:0.6;}
	.st2{fill:none;stroke:#FFFFFF;stroke-width:11.8792;stroke-linecap:round;stroke-miterlimit:10;}
</style>

<g id="Layer_3">
	<g>
		<path class="st0" d="M36.5,9.1c14.9,0,26.9,12.1,26.9,26.9S51.4,62.9,36.5,62.9"/>
		<path class="st0" d="M36.5,62.9C21.6,62.9,9.6,50.9,9.6,36S21.6,9.1,36.5,9.1"/>
		<g class="st1">
			<path class="st2" d="M94.7,103.9c-14.9,0-26.9-12.1-26.9-26.9S79.9,50,94.7,50"/>
			<line class="st2" x1="82.4" y1="77.2" x2="107" y2="77.2"/>
		</g>
		<line class="st0" x1="24.2" y1="36.2" x2="48.8" y2="36.2"/>
		<line class="st0" x1="36.5" y1="24" x2="36.5" y2="48.5"/>
		<path class="st0" d="M94.7,50c14.9,0,26.9,12.1,26.9,26.9s-12.1,26.9-26.9,26.9"/>
	</g>
</g>
</svg>
