<?xml version="1.0" encoding="utf-8"?>
<!-- Generator: Adobe Illustrator 19.1.0, SVG Export Plug-In . SVG Version: 6.00 Build 0)  -->
<svg version="1.1" xmlns="http://www.w3.org/2000/svg" xmlns:xlink="http://www.w3.org/1999/xlink" x="0px" y="0px"
	 viewBox="0 0 109.6 109.6" style="enable-background:new 0 0 109.6 109.6;" xml:space="preserve">
<style type="text/css">
	.st0{opacity:0.6;fill:none;stroke:#FFFFFF;stroke-width:11.8792;stroke-linecap:round;stroke-miterlimit:10;}
	.st1{opacity:0.6;}
	.st2{fill:none;stroke:#FFFFFF;stroke-width:11.8792;stroke-linecap:round;stroke-miterlimit:10;}
	.st3{opacity:0.56;fill:#FFFFFF;}
	.st4{fill:none;stroke:#FFFFFF;stroke-width:3;stroke-linecap:round;stroke-miterlimit:10;}
	.st5{opacity:0.55;fill:none;stroke:#FFFFFF;stroke-width:9.6586;stroke-linecap:round;stroke-miterlimit:10;}
	
		.st6{opacity:0.55;fill:none;stroke:#FFFFFF;stroke-width:7.7269;stroke-linecap:round;stroke-linejoin:round;stroke-miterlimit:10;}
	
		.st7{opacity:0.55;fill:#FFFFFF;stroke:#FFFFFF;stroke-width:7.7269;stroke-linecap:round;stroke-linejoin:round;stroke-miterlimit:10;}
	.st8{fill:none;stroke:#4667FF;stroke-width:15.8215;stroke-linecap:round;stroke-miterlimit:10;}
	.st9{fill:none;stroke:#F15A29;stroke-width:15.8215;stroke-linecap:round;stroke-miterlimit:10;}
	.st10{fill:none;stroke:#F15A29;stroke-width:5.815;stroke-linecap:round;stroke-miterlimit:10;}
	.st11{fill:none;stroke:#4667FF;stroke-width:5.815;stroke-linecap:round;stroke-miterlimit:10;}
	.st12{fill:#F15A29;}
	.st13{fill:#FFFFFF;}
</style>
<g id="Layer_4">
</g>
<g id="Layer_3">
	<g>
		<line class="st0" x1="87.5" y1="22.2" x2="72.4" y2="37.2"/>
		<line class="st0" x1="37.2" y1="72.4" x2="22.2" y2="87.5"/>
		<line class="st0" x1="87.5" y1="87.5" x2="72.4" y2="72.4"/>
		<line class="st0" x1="37.2" y1="37.2" x2="22.2" y2="22.2"/>
		<g class="st1">
			<path class="st2" d="M37.2,37.2c9.7-9.7,25.4-9.7,35.1,0"/>
			<g>
				<path class="st2" d="M72.4,72.3c9.7-9.7,9.7-25.4,0-35.1"/>
			</g>
			<g>
				<path class="st2" d="M72.4,72.3C62.6,82,47,82,37.2,72.3"/>
			</g>
			<g>
				<path class="st2" d="M37.2,37.2c-9.7,9.7-9.7,25.4,0,35.1"/>
			</g>
			<circle class="st13" cx="54.8" cy="54.7" r="7.7"/>
		</g>
		<g class="st1">
			<line class="st2" x1="54.8" y1="8.7" x2="54.8" y2="30"/>
		</g>
		<g class="st1">
			<line class="st2" x1="54.8" y1="79.6" x2="54.8" y2="100.9"/>
		</g>
		<g class="st1">
			<line class="st2" x1="100.9" y1="54.8" x2="79.6" y2="54.8"/>
		</g>
		<g class="st1">
			<line class="st2" x1="30" y1="54.8" x2="8.7" y2="54.8"/>
		</g>
	</g>
</g>
</svg>
