<?xml version="1.0" encoding="utf-8"?>
<!-- Generator: Adobe Illustrator 21.0.2, SVG Export Plug-In . SVG Version: 6.00 Build 0)  -->
<svg version="1.1" xmlns="http://www.w3.org/2000/svg" xmlns:xlink="http://www.w3.org/1999/xlink" x="0px" y="0px"
	 viewBox="0 0 102 102" style="enable-background:new 0 0 102 102;" xml:space="preserve">
<style type="text/css">
	.st0{opacity:0.75;fill:#4667FF;}
	.st1{fill:#FFD92E;}
	.st2{fill:#4667FF;}
	.st3{fill:#FFFFFF;}
	.st4{fill:none;stroke:#FFFFFF;stroke-width:3;stroke-miterlimit:10;}
	.st5{fill:none;stroke:#FFFFFF;stroke-width:3;stroke-linecap:round;stroke-miterlimit:10;}
	.st6{fill:none;stroke:#4F5252;stroke-width:3;stroke-miterlimit:10;}
	.st7{fill:#4F5252;}
	.st8{fill:none;stroke:#FFFFFF;stroke-miterlimit:10;}
	.st9{fill:#F15A29;}
	.st10{fill:#19191A;}
	.st11{fill:none;stroke:#DDDDDC;stroke-miterlimit:10;}
	.st12{fill:#DDDDDC;}
	.st13{opacity:0.6;fill:none;stroke:#FFFFFF;stroke-width:11.8792;stroke-linecap:round;stroke-miterlimit:10;}
	.st14{opacity:0.6;}
	.st15{fill:none;stroke:#FFFFFF;stroke-width:11.8792;stroke-linecap:round;stroke-miterlimit:10;}
	.st16{fill:#EFF0F1;}
	.st17{fill:#939291;}
	.st18{fill:none;stroke:#4667FF;stroke-width:15.8215;stroke-linecap:round;stroke-miterlimit:10;}
	.st19{fill:none;stroke:#F15A29;stroke-width:15.8215;stroke-linecap:round;stroke-miterlimit:10;}
	.st20{fill:none;stroke:#F15A29;stroke-width:5.815;stroke-linecap:round;stroke-miterlimit:10;}
	.st21{fill:none;stroke:#4667FF;stroke-width:5.815;stroke-linecap:round;stroke-miterlimit:10;}
	.st22{fill:#FFFFFF;stroke:#FFFFFF;stroke-width:1.4957;stroke-miterlimit:10;}
	.st23{opacity:0.76;fill:#FFFFFF;}
	.st24{fill:none;stroke:#4667FF;stroke-width:3;stroke-miterlimit:10;}
	.st25{clip-path:url(#SVGID_20_);}
	.st26{clip-path:url(#SVGID_22_);}
	.st27{opacity:0.6;fill:#FFFFFF;}
	.st28{fill:#4F5252;stroke:#4F5252;stroke-width:2;stroke-miterlimit:10;}
	.st29{fill:none;stroke:#4667FF;stroke-width:2;stroke-miterlimit:10;}
	.st30{fill:#FFD92E;stroke:#4667FF;stroke-width:2;stroke-miterlimit:10;}
	.st31{fill:#4667FF;stroke:#4667FF;stroke-width:0.5;stroke-miterlimit:10;}
	.st32{fill:#4667FF;stroke:#4667FF;stroke-width:0.25;stroke-miterlimit:10;}
	.st33{fill:none;stroke:#FFFFFF;stroke-width:2.329;stroke-linecap:round;stroke-miterlimit:10;}
	.st34{fill:#19191A;stroke:#19191A;stroke-miterlimit:10;}
	.st35{fill:none;stroke:#19191A;stroke-miterlimit:10;}
</style>
<g id="Layer_4">
</g>
<g id="Layer_3">
	<g>
		<g>
			<path class="st29" d="M70.6,50L70.6,50l4.3-4.3L64,34.8l-4.3,4.3l0,0c-8.1-3.8-17.9-2.1-24.5,4.6c-8.6,8.6-8.6,22.4,0,31
				s22.4,8.6,31,0C72.9,68,74.3,58.1,70.6,50z"/>
			<path class="st29" d="M69,39.5c1.6,1.1,3.8,0.5,5.2-0.8c1.2-1.2,1.8-2.8,3.1-3.8c1.7-1.3,4.1-1,6.2-0.6c1,0.2,2.1,0.4,3.1,0.2
				s2.1-0.7,2.5-1.7"/>
			<line class="st29" x1="76.8" y1="27.8" x2="74.9" y2="20.8"/>
			<line class="st29" x1="84.1" y1="27.5" x2="85.4" y2="22.3"/>
			<line class="st29" x1="86.1" y1="39.9" x2="91" y2="42.2"/>
			<line class="st29" x1="80.5" y1="44.3" x2="86.4" y2="49.5"/>
			<line class="st29" x1="59.7" y1="39.1" x2="70.6" y2="50"/>
		</g>
		<line class="st29" x1="8.8" y1="81.1" x2="83.5" y2="81.1"/>
	</g>
</g>
</svg>
