<?xml version="1.0" encoding="utf-8"?>
<!-- Generator: Adobe Illustrator 21.0.2, SVG Export Plug-In . SVG Version: 6.00 Build 0)  -->
<svg version="1.1" xmlns="http://www.w3.org/2000/svg" xmlns:xlink="http://www.w3.org/1999/xlink" x="0px" y="0px"
	 viewBox="0 0 102 102" style="enable-background:new 0 0 102 102;" xml:space="preserve">
<style type="text/css">
	.st0{opacity:0.75;fill:#4667FF;}
	.st1{fill:#FFD92E;}
	.st2{fill:#4667FF;}
	.st3{fill:#FFFFFF;}
	.st4{fill:none;stroke:#FFFFFF;stroke-width:3;stroke-miterlimit:10;}
	.st5{fill:none;stroke:#FFFFFF;stroke-width:3;stroke-linecap:round;stroke-miterlimit:10;}
	.st6{fill:none;stroke:#4F5252;stroke-width:3;stroke-miterlimit:10;}
	.st7{fill:#4F5252;}
	.st8{fill:none;stroke:#FFFFFF;stroke-miterlimit:10;}
	.st9{fill:#F15A29;}
	.st10{fill:#19191A;}
	.st11{fill:none;stroke:#DDDDDC;stroke-miterlimit:10;}
	.st12{fill:#DDDDDC;}
	.st13{opacity:0.6;fill:none;stroke:#FFFFFF;stroke-width:11.8792;stroke-linecap:round;stroke-miterlimit:10;}
	.st14{opacity:0.6;}
	.st15{fill:none;stroke:#FFFFFF;stroke-width:11.8792;stroke-linecap:round;stroke-miterlimit:10;}
	.st16{fill:#EFF0F1;}
	.st17{fill:#939291;}
	.st18{fill:none;stroke:#4667FF;stroke-width:15.8215;stroke-linecap:round;stroke-miterlimit:10;}
	.st19{fill:none;stroke:#F15A29;stroke-width:15.8215;stroke-linecap:round;stroke-miterlimit:10;}
	.st20{fill:none;stroke:#F15A29;stroke-width:5.815;stroke-linecap:round;stroke-miterlimit:10;}
	.st21{fill:none;stroke:#4667FF;stroke-width:5.815;stroke-linecap:round;stroke-miterlimit:10;}
	.st22{fill:#FFFFFF;stroke:#FFFFFF;stroke-width:1.4957;stroke-miterlimit:10;}
	.st23{opacity:0.76;fill:#FFFFFF;}
	.st24{fill:none;stroke:#4667FF;stroke-width:3;stroke-miterlimit:10;}
	.st25{clip-path:url(#SVGID_20_);}
	.st26{clip-path:url(#SVGID_22_);}
	.st27{opacity:0.6;fill:#FFFFFF;}
	.st28{fill:#4F5252;stroke:#4F5252;stroke-width:2;stroke-miterlimit:10;}
	.st29{fill:none;stroke:#4667FF;stroke-width:2;stroke-miterlimit:10;}
	.st30{fill:#FFD92E;stroke:#4667FF;stroke-width:2;stroke-miterlimit:10;}
	.st31{fill:#4667FF;stroke:#4667FF;stroke-width:0.5;stroke-miterlimit:10;}
	.st32{fill:#4667FF;stroke:#4667FF;stroke-width:0.25;stroke-miterlimit:10;}
	.st33{fill:none;stroke:#FFFFFF;stroke-width:2.329;stroke-linecap:round;stroke-miterlimit:10;}
	.st34{fill:#19191A;stroke:#19191A;stroke-miterlimit:10;}
	.st35{fill:none;stroke:#19191A;stroke-miterlimit:10;}
</style>
<g id="Layer_4">
</g>
<g id="Layer_3">
	<g>
		<circle class="st29" cx="49.5" cy="48.3" r="28.6"/>
		<polyline class="st29" points="49.5,30.6 49.5,48.3 58.9,48.3 		"/>
		<path class="st2" d="M28.9,52.6h-1.4V47c0-0.7,0-1.2,0-1.6c-0.1,0.1-0.2,0.2-0.3,0.3s-0.6,0.5-1.3,1.1L25.2,46l2.5-2h1.1V52.6z"/>
		<path class="st2" d="M73.1,51h-5.8v-1l2.2-2.2c0.7-0.7,1.1-1.1,1.3-1.4s0.4-0.5,0.5-0.8s0.1-0.5,0.1-0.8c0-0.4-0.1-0.7-0.3-0.9
			s-0.6-0.3-1-0.3c-0.3,0-0.6,0.1-1,0.2s-0.7,0.3-1.1,0.7l-0.7-0.9c0.5-0.4,0.9-0.7,1.4-0.9s0.9-0.3,1.4-0.3c0.8,0,1.4,0.2,1.9,0.6
			s0.7,1,0.7,1.7c0,0.4-0.1,0.8-0.2,1.1s-0.4,0.7-0.6,1.1s-0.8,0.9-1.4,1.5l-1.5,1.4v0.1h4.1V51z"/>
		<path class="st2" d="M84.3,73.6c-0.5,0.3-0.9,0.3-1.4,0.2c-0.5-0.1-0.9-0.4-1.3-0.8l0,0c0.3,0.6,0.3,1.2,0.2,1.7
			c-0.1,0.5-0.4,0.8-0.9,1.1c-0.7,0.4-1.4,0.5-2.1,0.2c-0.7-0.3-1.3-0.9-1.8-1.8c-0.5-0.8-0.7-1.6-0.8-2.3l1.1-0.6
			c0,0.4,0.1,0.8,0.2,1.2c0.1,0.4,0.3,0.8,0.4,1.1c0.3,0.6,0.7,1,1,1.1c0.4,0.2,0.8,0.1,1.2-0.1c0.4-0.2,0.6-0.5,0.6-1
			c0-0.4-0.2-1-0.5-1.7l-0.4-0.7l1-0.5l0.4,0.7c0.7,1.2,1.4,1.6,2.2,1.1c0.3-0.2,0.5-0.4,0.6-0.7c0.1-0.3,0-0.7-0.2-1.1
			c-0.2-0.3-0.3-0.5-0.6-0.8s-0.6-0.4-1-0.7l0.5-1.1c0.9,0.4,1.6,1.1,2.1,2c0.4,0.8,0.6,1.4,0.5,2C85.2,72.8,84.9,73.3,84.3,73.6z"
			/>
		<path class="st2" d="M26.5,70.7l-0.6,1l1.6,1l-0.7,1.2l-1.6-1l-2,3.4l-0.9-0.5l-2.9-6.3l0.7-1.2l4.8,2.8l0.6-1L26.5,70.7z
			 M24.3,72.3l-1.9-1.1c-0.7-0.4-1.2-0.7-1.6-1l0,0c0.2,0.2,0.3,0.5,0.5,0.9l1.6,3.4L24.3,72.3z"/>
		<path class="st2" d="M35,61.5c0.9,0,1.5,0.2,2.1,0.7s0.8,1.1,0.8,1.9c0,0.9-0.3,1.6-0.9,2.1S35.6,67,34.5,67c-1,0-1.7-0.2-2.3-0.5
			v-1.2c0.3,0.2,0.7,0.3,1.1,0.4s0.8,0.1,1.1,0.1c0.6,0,1.1-0.1,1.4-0.4s0.5-0.7,0.5-1.2c0-1-0.7-1.5-2-1.5c-0.2,0-0.4,0-0.7,0.1
			s-0.5,0.1-0.7,0.1l-0.6-0.4l0.3-4.2h4.5v1.2H34l-0.2,2.1c0.1,0,0.3-0.1,0.5-0.1S34.7,61.5,35,61.5z"/>
		<path class="st2" d="M68.8,74.6c-2.2-2.6-2.2-4.7-0.1-6.5c0.3-0.3,0.6-0.5,0.9-0.6l0.7,0.9c-0.3,0.1-0.6,0.3-0.9,0.6
			c-0.7,0.6-1.1,1.2-1.1,1.9c0,0.7,0.3,1.4,1,2.3l0.1,0c-0.1-0.4,0-0.7,0.1-1.1s0.4-0.7,0.7-1c0.6-0.5,1.2-0.7,1.8-0.6
			c0.6,0.1,1.2,0.4,1.7,1.1c0.6,0.7,0.8,1.4,0.8,2.1c0,0.7-0.4,1.4-1.1,1.9c-0.5,0.4-1,0.6-1.5,0.7c-0.5,0.1-1.1,0-1.6-0.3
			C69.8,75.6,69.3,75.2,68.8,74.6z M72.8,74.7c0.4-0.3,0.5-0.7,0.5-1.1c0-0.4-0.2-0.8-0.5-1.2c-0.3-0.4-0.7-0.6-1-0.7
			c-0.4-0.1-0.7,0.1-1.1,0.4c-0.2,0.2-0.4,0.4-0.5,0.7S70,73.3,70,73.5c0,0.3,0.1,0.5,0.3,0.7c0.4,0.4,0.8,0.7,1.2,0.8
			C72,75.1,72.4,75,72.8,74.7z"/>
		<path class="st2" d="M30.3,88.3l3.4-7.3h-4.5v-1.2h5.9v1l-3.4,7.6H30.3z"/>
		<polygon class="st2" points="49.5,27.3 46.8,32.1 52.3,32.1 		"/>
		<polygon class="st2" points="63.7,48.3 58.9,45.5 58.9,51 		"/>
	</g>
</g>
</svg>
