<?xml version="1.0" encoding="utf-8"?>
<!-- Generator: Adobe Illustrator 21.0.2, SVG Export Plug-In . SVG Version: 6.00 Build 0)  -->
<svg version="1.1" xmlns="http://www.w3.org/2000/svg" xmlns:xlink="http://www.w3.org/1999/xlink" x="0px" y="0px"
	 viewBox="0 0 102 102" style="enable-background:new 0 0 102 102;" xml:space="preserve">
<style type="text/css">
	.st0{opacity:0.75;fill:#4667FF;}
	.st1{fill:#FFD92E;}
	.st2{fill:#4667FF;}
	.st3{fill:#FFFFFF;}
	.st4{fill:none;stroke:#FFFFFF;stroke-width:3;stroke-miterlimit:10;}
	.st5{fill:none;stroke:#FFFFFF;stroke-width:3;stroke-linecap:round;stroke-miterlimit:10;}
	.st6{fill:none;stroke:#4F5252;stroke-width:3;stroke-miterlimit:10;}
	.st7{fill:#4F5252;}
	.st8{fill:none;stroke:#FFFFFF;stroke-miterlimit:10;}
	.st9{fill:#F15A29;}
	.st10{fill:#19191A;}
	.st11{fill:none;stroke:#DDDDDC;stroke-miterlimit:10;}
	.st12{fill:#DDDDDC;}
	.st13{opacity:0.6;fill:none;stroke:#FFFFFF;stroke-width:11.8792;stroke-linecap:round;stroke-miterlimit:10;}
	.st14{opacity:0.6;}
	.st15{fill:none;stroke:#FFFFFF;stroke-width:11.8792;stroke-linecap:round;stroke-miterlimit:10;}
	.st16{fill:#EFF0F1;}
	.st17{fill:#939291;}
	.st18{fill:none;stroke:#4667FF;stroke-width:15.8215;stroke-linecap:round;stroke-miterlimit:10;}
	.st19{fill:none;stroke:#F15A29;stroke-width:15.8215;stroke-linecap:round;stroke-miterlimit:10;}
	.st20{fill:none;stroke:#F15A29;stroke-width:5.815;stroke-linecap:round;stroke-miterlimit:10;}
	.st21{fill:none;stroke:#4667FF;stroke-width:5.815;stroke-linecap:round;stroke-miterlimit:10;}
	.st22{fill:#FFFFFF;stroke:#FFFFFF;stroke-width:1.4957;stroke-miterlimit:10;}
	.st23{opacity:0.76;fill:#FFFFFF;}
	.st24{fill:none;stroke:#4667FF;stroke-width:3;stroke-miterlimit:10;}
	.st25{clip-path:url(#SVGID_20_);}
	.st26{clip-path:url(#SVGID_22_);}
	.st27{opacity:0.6;fill:#FFFFFF;}
	.st28{fill:#4F5252;stroke:#4F5252;stroke-width:2;stroke-miterlimit:10;}
	.st29{fill:none;stroke:#4667FF;stroke-width:2;stroke-miterlimit:10;}
	.st30{fill:#FFD92E;stroke:#4667FF;stroke-width:2;stroke-miterlimit:10;}
	.st31{fill:#4667FF;stroke:#4667FF;stroke-width:0.5;stroke-miterlimit:10;}
	.st32{fill:#4667FF;stroke:#4667FF;stroke-width:0.25;stroke-miterlimit:10;}
	.st33{fill:none;stroke:#FFFFFF;stroke-width:2.329;stroke-linecap:round;stroke-miterlimit:10;}
	.st34{fill:#19191A;stroke:#19191A;stroke-miterlimit:10;}
	.st35{fill:none;stroke:#19191A;stroke-miterlimit:10;}
</style>
<g id="Layer_4">
</g>
<g id="Layer_3">
	<g>
		<g>
			<circle class="st29" cx="51.5" cy="51.3" r="47.7"/>
			<g>
				<rect x="17.2" y="34.2" class="st30" width="55.4" height="29.8"/>
				<ellipse class="st30" cx="44.9" cy="48.9" rx="9.5" ry="12.1"/>
				<line class="st29" x1="60.3" y1="48.9" x2="66.7" y2="48.9"/>
				<line class="st29" x1="22.4" y1="48.9" x2="28.8" y2="48.9"/>
				<g>
					<path class="st2" d="M50.4,46c0,1.4-0.5,2.5-1.4,3.2c-0.9,0.7-2.3,1.1-4.1,1.1h-1.6v5.4h-1.6V42h3.6C48.7,42,50.4,43.4,50.4,46
						z M43.3,49h1.4c1.4,0,2.4-0.2,3.1-0.7c0.6-0.5,0.9-1.2,0.9-2.2c0-0.9-0.3-1.6-0.9-2c-0.6-0.4-1.5-0.7-2.8-0.7h-1.8V49z"/>
				</g>
				
					<rect x="42.2" y="49.5" transform="matrix(-1.836970e-16 1 -1 -1.836970e-16 94.981 9.0962)" class="st2" width="1.6" height="5.1"/>
			</g>
			<g>
				<rect x="29.5" y="40.9" class="st30" width="55.4" height="29.8"/>
				<ellipse class="st30" cx="57.2" cy="55.6" rx="9.5" ry="12.1"/>
				<line class="st29" x1="72.7" y1="55.6" x2="79.1" y2="55.6"/>
				<line class="st29" x1="34.7" y1="55.6" x2="41.2" y2="55.6"/>
				<g>
					<path class="st2" d="M62.8,52.7c0,1.4-0.5,2.5-1.4,3.2c-0.9,0.7-2.3,1.1-4.1,1.1h-1.6v5.4h-1.6V48.7h3.6
						C61.1,48.7,62.8,50.1,62.8,52.7z M55.7,55.7h1.4c1.4,0,2.4-0.2,3.1-0.7c0.6-0.5,0.9-1.2,0.9-2.2c0-0.9-0.3-1.6-0.9-2
						c-0.6-0.4-1.5-0.7-2.8-0.7h-1.8V55.7z"/>
				</g>
				
					<rect x="54.5" y="56.2" transform="matrix(-1.836970e-16 1 -1 -1.836970e-16 114.0214 3.4727)" class="st2" width="1.6" height="5.1"/>
			</g>
		</g>
	</g>
</g>
</svg>
