<?xml version="1.0" encoding="utf-8"?>
<!-- Generator: Adobe Illustrator 21.0.2, SVG Export Plug-In . SVG Version: 6.00 Build 0)  -->
<svg version="1.1" xmlns="http://www.w3.org/2000/svg" xmlns:xlink="http://www.w3.org/1999/xlink" x="0px" y="0px"
	 viewBox="0 0 102 102" style="enable-background:new 0 0 102 102;" xml:space="preserve">
<style type="text/css">
	.st0{opacity:0.75;fill:#4667FF;}
	.st1{fill:#FFD92E;}
	.st2{fill:#4667FF;}
	.st3{fill:#FFFFFF;}
	.st4{fill:none;stroke:#FFFFFF;stroke-width:3;stroke-miterlimit:10;}
	.st5{fill:none;stroke:#FFFFFF;stroke-width:3;stroke-linecap:round;stroke-miterlimit:10;}
	.st6{fill:none;stroke:#4F5252;stroke-width:3;stroke-miterlimit:10;}
	.st7{fill:#4F5252;}
	.st8{fill:none;stroke:#FFFFFF;stroke-miterlimit:10;}
	.st9{fill:#F15A29;}
	.st10{fill:#19191A;}
	.st11{fill:none;stroke:#DDDDDC;stroke-miterlimit:10;}
	.st12{fill:#DDDDDC;}
	.st13{opacity:0.6;fill:none;stroke:#FFFFFF;stroke-width:11.8792;stroke-linecap:round;stroke-miterlimit:10;}
	.st14{opacity:0.6;}
	.st15{fill:none;stroke:#FFFFFF;stroke-width:11.8792;stroke-linecap:round;stroke-miterlimit:10;}
	.st16{fill:#EFF0F1;}
	.st17{fill:#939291;}
	.st18{fill:none;stroke:#4667FF;stroke-width:15.8215;stroke-linecap:round;stroke-miterlimit:10;}
	.st19{fill:none;stroke:#F15A29;stroke-width:15.8215;stroke-linecap:round;stroke-miterlimit:10;}
	.st20{fill:none;stroke:#F15A29;stroke-width:5.815;stroke-linecap:round;stroke-miterlimit:10;}
	.st21{fill:none;stroke:#4667FF;stroke-width:5.815;stroke-linecap:round;stroke-miterlimit:10;}
	.st22{fill:#FFFFFF;stroke:#FFFFFF;stroke-width:1.4957;stroke-miterlimit:10;}
	.st23{opacity:0.76;fill:#FFFFFF;}
	.st24{fill:none;stroke:#4667FF;stroke-width:3;stroke-miterlimit:10;}
	.st25{clip-path:url(#SVGID_20_);}
	.st26{clip-path:url(#SVGID_22_);}
	.st27{opacity:0.6;fill:#FFFFFF;}
	.st28{fill:#4F5252;stroke:#4F5252;stroke-width:2;stroke-miterlimit:10;}
	.st29{fill:none;stroke:#4667FF;stroke-width:2;stroke-miterlimit:10;}
	.st30{fill:#FFD92E;stroke:#4667FF;stroke-width:2;stroke-miterlimit:10;}
	.st31{fill:#4667FF;stroke:#4667FF;stroke-width:0.5;stroke-miterlimit:10;}
	.st32{fill:#4667FF;stroke:#4667FF;stroke-width:0.25;stroke-miterlimit:10;}
	.st33{fill:none;stroke:#FFFFFF;stroke-width:2.329;stroke-linecap:round;stroke-miterlimit:10;}
	.st34{fill:#19191A;stroke:#19191A;stroke-miterlimit:10;}
	.st35{fill:none;stroke:#19191A;stroke-miterlimit:10;}
</style>
<g id="Layer_4">
</g>
<g id="Layer_3">
	<g>
		<g>
			<circle class="st29" cx="35.8" cy="52.6" r="12.8"/>
			<circle class="st29" cx="35.8" cy="52.6" r="5.3"/>
			<path class="st29" d="M64.6,52.6c0,0-12.9,12.8-28.7,12.8S7.1,52.6,7.1,52.6S20,39.9,35.8,39.9S64.6,52.6,64.6,52.6z"/>
		</g>
		<g>
			<path class="st31" d="M93.6,31c1.1,0.1,2,0.7,2.5,1.6c0.7,1.2,0.5,2.5-0.3,3.6c-3.5,4.8-7,9.7-10.5,14.5
				c-2.8,3.9-7.6,5.5-12.2,4.1c-4-1.3-6.5-4-7.5-8c-0.8-3.2-0.1-6.3,1.8-9c4.6-6.3,9.2-12.6,13.7-18.9c1-1.4,3.1-1.7,4.5-0.6
				c0.6,0.4,0.9,1,1.2,1.6c1.4-1.6,3.3-1.5,4.4-0.7c1.4,0.9,2,2.9,0.8,4.6c0.1,0,0.2,0,0.3,0c1.6,0.1,2.9,1.5,2.9,3.2
				c0,0.7-0.2,1.4-0.6,2c-0.5,0.7-1,1.3-1.5,2.1C93.4,31,93.5,31,93.6,31z M77,26.9c-2.8,3.9-5.6,7.8-8.4,11.6
				c-1.4,1.9-2.1,4-1.9,6.3c0.2,3.7,2,6.4,5.3,8.1c4.2,2.2,9.5,1,12.3-2.9c1-1.4,2-2.7,3-4.1c1.6-2.2,1.2-4.9-1-6.5
				c-2.5-1.8-5-3.6-7.5-5.4c-0.1-0.1-0.1-0.1-0.2-0.2c-0.8,1.1-1.6,2.1-2.3,3.1c0.4,0.6,0.9,1.1,1.2,1.7c1,2,0.9,4-0.3,5.9
				c-0.3,0.4-0.7,0.6-1,0.4c-0.4-0.2-0.4-0.6-0.1-1c0.7-1,0.9-2.1,0.7-3.2c-0.2-1.2-0.7-2.1-1.7-2.9c-0.5-0.4-0.5-0.7-0.2-1.2
				c1-1.3,1.9-2.6,2.9-4c1.3-1.8,1.2-4.2-0.3-5.8c0,0-0.1-0.1-0.1-0.1C77.1,26.7,77,26.8,77,26.9z M82.3,35c0,0,0.1-0.1,0.1-0.2
				c2.8-3.9,5.7-7.8,8.5-11.7c0.4-0.6,0.6-1.3,0.3-2c-0.3-0.7-0.8-1.1-1.5-1.2c-0.7-0.1-1.4,0.1-1.8,0.7c-2.9,4-5.8,8-8.7,12
				c0,0,0,0.1,0,0.1C80.2,33.5,81.2,34.2,82.3,35z M86.5,38c0,0,0.1-0.1,0.1-0.2c2.3-3.2,4.7-6.4,7-9.6c0.7-1,0.6-1.9-0.2-2.7
				c-0.8-0.8-2.2-0.7-2.8,0.2c-2.4,3.3-4.8,6.6-7.2,10c0,0,0,0,0,0C84.4,36.5,85.4,37.3,86.5,38z M89.4,42.8
				c0.1-0.1,0.1-0.1,0.2-0.2c1.7-2.4,3.5-4.8,5.2-7.2c0.7-0.9,0.6-1.9-0.2-2.6c-0.8-0.8-2.2-0.7-2.8,0.2c-1.4,1.9-2.8,3.9-4.2,5.8
				c0,0,0,0.1,0,0.1C88.6,39.9,89.2,41.2,89.4,42.8z M79.8,29.5c0.1-0.1,0.1-0.2,0.2-0.2c1.7-2.4,3.5-4.8,5.2-7.1
				c0.7-1,0.6-2-0.2-2.7c-0.8-0.7-2.1-0.6-2.8,0.2c-1.4,1.9-2.8,3.9-4.3,5.9C79.1,26.6,79.7,27.9,79.8,29.5z"/>
			
				<rect x="51.7" y="44.7" transform="matrix(0.8093 0.5873 -0.5873 0.8093 48.9761 -24.8129)" class="st1" width="22" height="36.6"/>
			
				<rect x="51.7" y="44.7" transform="matrix(0.8093 0.5873 -0.5873 0.8093 48.9761 -24.8129)" class="st29" width="22" height="36.6"/>
			<line class="st29" x1="59.1" y1="49.3" x2="76.9" y2="62.2"/>
			
				<ellipse transform="matrix(0.5873 -0.8093 0.8093 0.5873 -12.0167 73.8462)" class="st29" cx="66.4" cy="48.7" rx="1.8" ry="1.8"/>
		</g>
	</g>
</g>
</svg>
