<?xml version="1.0" encoding="utf-8"?>
<!-- Generator: Adobe Illustrator 21.0.2, SVG Export Plug-In . SVG Version: 6.00 Build 0)  -->
<svg version="1.1" xmlns="http://www.w3.org/2000/svg" xmlns:xlink="http://www.w3.org/1999/xlink" x="0px" y="0px"
	 viewBox="0 0 109.2 138.6" style="enable-background:new 0 0 109.2 138.6;" xml:space="preserve">
<style type="text/css">
	.st0{fill:#19191A;}
	.st1{fill:#4667FF;}
	.st2{fill:#4F5252;}
	.st3{fill:none;stroke:#4667FF;stroke-width:2;stroke-miterlimit:10;}
	.st4{fill:#FFD92E;stroke:#4667FF;stroke-width:2;stroke-miterlimit:10;}
	.st5{fill:#FFD92E;}
	.st6{fill:#4667FF;stroke:#4667FF;stroke-width:0.5;stroke-miterlimit:10;}
</style>
<g id="Layer_4">
</g>
<g id="Layer_3">
	<g>
		<path class="st3" d="M1,46.1c0-2.7,0-5.4,0-8.1c0-3.1,2.1-5.1,5.2-5.1c5.3,0,10.6,0,15.9,0c1.5,0,3-0.2,4.4-0.6
			c3.8-1.1,5.4-4.8,3.7-8.3c-0.5-1-1.2-1.9-1.9-2.8c-2.3-2.9-3.7-6-3.2-9.7c0.6-4.5,3.2-7.5,7.5-9.2c4.8-1.9,9.5-1.5,13.8,1.2
			c5,3.2,6.7,9.2,4,14.5c-0.7,1.4-1.7,2.7-2.7,3.9c-1.1,1.5-2,3.1-1.9,5c0.1,3.1,2.4,5.3,5.9,5.8c1,0.1,2,0.2,3,0.2
			c5.2,0,10.3,0.1,15.5,0c3.4-0.1,5.5,2.7,5.4,5.3c-0.1,5.3-0.1,10.5,0,15.8c0,1.3,0.2,2.5,0.6,3.7c1.2,3.9,5,5.5,8.8,3.7
			c0.9-0.4,1.7-1,2.5-1.7c3.3-2.6,7-3.8,11.2-3c2.9,0.6,5.1,2.1,6.9,4.5c3.4,4.7,3.4,11.8,0,16.5c-3.3,4.5-9.2,6.1-14.3,3.7
			c-1.5-0.7-2.8-1.6-4.1-2.6c-1.6-1.2-3.3-2-5.3-2c-2.6,0-4.8,1.6-5.6,4.3c-0.4,1.3-0.6,2.6-0.6,3.9c-0.1,5.3,0,10.6,0,15.9
			c0,3.1-2,5.1-5.2,5.1c-5.3,0-10.6,0-15.9,0c-1.5,0-3,0.2-4.4,0.6c-3.8,1.1-5.4,4.8-3.7,8.3c0.5,1,1.3,2,2,2.9
			c2.3,2.9,3.6,6.1,3.1,9.9c-0.6,4.3-3.2,7.2-7.3,8.9c-4.1,1.7-8.2,1.6-12.3-0.2c-6.2-2.7-8.8-9.7-5.6-15.8c0.7-1.3,1.6-2.5,2.5-3.6
			c1.2-1.6,2.1-3.2,1.9-5.2c-0.3-3-2.4-5.1-5.9-5.6c-1-0.1-2-0.2-3-0.2c-5.1,0-10.3,0-15.4,0C3,105.9,1,104,1,100.6
			C1,95.3,1,90,1,84.8c0-1.3,0.2-2.6,0.6-3.8c1.2-3.7,4.9-5.3,8.5-3.6c1,0.5,1.9,1.1,2.7,1.8c3.3,2.6,7,3.8,11.2,3
			c2.7-0.5,5-2,6.7-4.2c3.7-4.8,3.7-12.2,0-17c-3.3-4.3-9-5.8-13.9-3.6c-1.5,0.7-3,1.6-4.3,2.7c-2.9,2.3-6.6,2.7-9,0.7
			c-1.9-1.6-2.4-3.9-2.5-6.2c0-0.1,0-0.1,0-0.2C1,51.6,1,48.9,1,46.1z"/>
	</g>
</g>
</svg>
