<svg version="1.1" xmlns="http://www.w3.org/2000/svg" xmlns:xlink="http://www.w3.org/1999/xlink" x="0px" y="0px"
	 viewBox="0 0 159.7 133" style="enable-background:new 0 0 159.7 133;" xml:space="preserve">
<style type="text/css">
	.st13{opacity:0.6;fill:none;stroke:#FFFFFF;stroke-width:11.8792;stroke-linecap:round;stroke-miterlimit:10;}
	.st15{fill:none;stroke:#FFFFFF;stroke-width:11.8792;stroke-linecap:round;stroke-miterlimit:10;}
</style>
<g>
	<path class="st13" d="M49.4,20.6c14.9,0,26.9,12.1,26.9,26.9S64.3,74.5,49.4,74.5"/>
	<path class="st13" d="M49.4,74.5c-14.9,0-26.9-12.1-26.9-26.9s12.1-26.9,26.9-26.9"/>
	<g class="st14">
		<path class="st15" d="M107.7,115.5c-14.9,0-26.9-12.1-26.9-26.9s12.1-26.9,26.9-26.9"/>
		<line class="st15" x1="95.4" y1="88.8" x2="119.9" y2="88.8"/>
	</g>
	<line class="st13" x1="37.1" y1="47.8" x2="61.7" y2="47.8"/>
	<line class="st13" x1="49.4" y1="35.5" x2="49.4" y2="60.1"/>
	<path class="st13" d="M107.7,61.6c14.9,0,26.9,12.1,26.9,26.9s-12.1,26.9-26.9,26.9"/>
</g>
</svg>
