<?xml version="1.0" encoding="utf-8"?>
<!-- Generator: Adobe Illustrator 21.0.2, SVG Export Plug-In . SVG Version: 6.00 Build 0)  -->
<svg version="1.1" xmlns="http://www.w3.org/2000/svg" xmlns:xlink="http://www.w3.org/1999/xlink" x="0px" y="0px"
	 viewBox="0 0 473.4 186.2" style="enable-background:new 0 0 473.4 186.2;" xml:space="preserve">
<style type="text/css">
	.st0{fill:#19191A;}
	.st1{fill:#4667FF;}
	.st2{fill:#4F5252;}
	.st3{fill:none;stroke:#4667FF;stroke-width:2;stroke-miterlimit:10;}
	.st4{fill:#FFD92E;stroke:#4667FF;stroke-width:2;stroke-miterlimit:10;}
	.st5{fill:#FFD92E;}
	.st6{fill:#4667FF;stroke:#4667FF;stroke-width:0.5;stroke-miterlimit:10;}
</style>
<g id="Layer_4">
</g>
<g id="Layer_3">
	<g>
		<line class="st3" x1="0" y1="185.2" x2="473.4" y2="185.2"/>
		<g>
			<g>
				<polyline class="st3" points="319.3,91.5 282.4,81.7 243.1,185.2 				"/>
				<polyline class="st3" points="319.3,108 287.8,100.4 275,185.2 				"/>
				<polyline class="st3" points="324.4,126.4 300.9,126.4 297.1,185.2 				"/>
			</g>
			<g>
				<polyline class="st3" points="375.3,91.5 412.2,81.7 451.5,185.2 				"/>
				<polyline class="st3" points="375.3,108 415.8,110.6 409.7,185.2 				"/>
				<polyline class="st3" points="370.2,126.4 399.6,133.4 387.3,167.7 				"/>
			</g>
			<circle class="st5" cx="353.1" cy="102.7" r="40.7"/>
			<circle class="st3" cx="353.1" cy="102.7" r="40.7"/>
			<g>
				<line class="st3" x1="334.2" y1="66.6" x2="324.4" y2="51.5"/>
				<line class="st3" x1="370.4" y1="66.6" x2="380.2" y2="51.5"/>
			</g>
			<line class="st3" x1="353.1" y1="62" x2="353.1" y2="143.3"/>
			<g>
				<rect x="334.7" y="96.8" class="st3" width="6.3" height="7.3"/>
				<rect x="366" y="96.8" class="st3" width="6.3" height="7.3"/>
			</g>
			<line class="st3" x1="347" y1="120.3" x2="359.1" y2="120.3"/>
		</g>
		<g>
			<g>
				<circle class="st3" cx="115.1" cy="107.7" r="77.4"/>
				<circle class="st3" cx="115.1" cy="107.7" r="45.7"/>
			</g>
			<g>
				<rect x="83.5" y="1" class="st5" width="63.2" height="40.1"/>
				<g>
					<g>
						<rect x="96.3" y="13.6" class="st3" width="6.3" height="7.3"/>
						<rect x="127.6" y="13.6" class="st3" width="6.3" height="7.3"/>
					</g>
					<line class="st3" x1="109.1" y1="34.4" x2="121.1" y2="34.4"/>
				</g>
				<rect x="83.5" y="1" class="st3" width="63.2" height="40.1"/>
			</g>
			<g>
				<g>
					<line class="st3" x1="51.3" y1="143.3" x2="34.8" y2="177.2"/>
					<circle class="st3" cx="28.1" cy="177.2" r="6.6"/>
				</g>
				<g>
					<line class="st3" x1="178.8" y1="143.3" x2="195.4" y2="177.2"/>
					<circle class="st3" cx="202" cy="177.2" r="6.6"/>
				</g>
			</g>
		</g>
		<g>
			<g>
				<rect x="177.3" y="24" class="st5" width="68.2" height="62.2"/>
				<rect x="193.4" y="86.2" class="st5" width="35.9" height="10.5"/>
				<rect x="161.6" y="96.8" class="st5" width="99.5" height="59.3"/>
				<g>
					<rect x="174.4" y="156" class="st5" width="15.6" height="29.1"/>
					<rect x="232.7" y="156" class="st5" width="15.6" height="29.1"/>
				</g>
				<g>
					<rect x="192.5" y="47.9" class="st5" width="6.3" height="7.3"/>
					<rect x="223.8" y="47.9" class="st5" width="6.3" height="7.3"/>
				</g>
			</g>
			<g>
				<rect x="177.3" y="24" class="st3" width="68.2" height="62.2"/>
				<rect x="193.4" y="86.2" class="st3" width="35.9" height="10.5"/>
				<rect x="161.6" y="96.8" class="st3" width="99.5" height="59.3"/>
				<g>
					<rect x="174.4" y="156" class="st3" width="15.6" height="29.1"/>
					<rect x="232.7" y="156" class="st3" width="15.6" height="29.1"/>
				</g>
				<g>
					<rect x="192.5" y="47.9" class="st3" width="6.3" height="7.3"/>
					<rect x="223.8" y="47.9" class="st3" width="6.3" height="7.3"/>
				</g>
				<line class="st3" x1="205.3" y1="68.6" x2="217.4" y2="68.6"/>
				<line class="st3" x1="261.1" y1="110.1" x2="290.5" y2="110.1"/>
				<line class="st3" x1="131.6" y1="110.1" x2="161" y2="110.1"/>
			</g>
		</g>
	</g>
</g>
</svg>
