<?xml version="1.0" encoding="utf-8"?>
<!-- Generator: Adobe Illustrator 19.1.0, SVG Export Plug-In . SVG Version: 6.00 Build 0)  -->
<svg version="1.1" xmlns="http://www.w3.org/2000/svg" xmlns:xlink="http://www.w3.org/1999/xlink" x="0px" y="0px"
	 viewBox="0 0 152 46" style="enable-background:new 0 0 152 46;" xml:space="preserve">
<style type="text/css">
	.st0{opacity:0.6;fill:none;stroke:#FFFFFF;stroke-width:11.8792;stroke-linecap:round;stroke-miterlimit:10;}
	.st1{opacity:0.6;}
	.st2{fill:none;stroke:#FFFFFF;stroke-width:11.8792;stroke-linecap:round;stroke-miterlimit:10;}
	.st3{opacity:0.56;fill:#FFFFFF;}
	.st4{fill:none;stroke:#FFFFFF;stroke-width:3;stroke-linecap:round;stroke-miterlimit:10;}
	.st5{opacity:0.55;fill:none;stroke:#FFFFFF;stroke-width:9.6586;stroke-linecap:round;stroke-miterlimit:10;}
	
		.st6{opacity:0.55;fill:none;stroke:#FFFFFF;stroke-width:7.7269;stroke-linecap:round;stroke-linejoin:round;stroke-miterlimit:10;}
	
		.st7{opacity:0.55;fill:#FFFFFF;stroke:#FFFFFF;stroke-width:7.7269;stroke-linecap:round;stroke-linejoin:round;stroke-miterlimit:10;}
	.st8{fill:none;stroke:#4667FF;stroke-width:15.8215;stroke-linecap:round;stroke-miterlimit:10;}
	.st9{fill:none;stroke:#F15A29;stroke-width:15.8215;stroke-linecap:round;stroke-miterlimit:10;}
	.st10{fill:none;stroke:#F15A29;stroke-width:5.815;stroke-linecap:round;stroke-miterlimit:10;}
	.st11{fill:none;stroke:#4667FF;stroke-width:5.815;stroke-linecap:round;stroke-miterlimit:10;}
	.st12{fill:#F15A29;}
	.st13{fill:#FFFFFF;}
</style>
<g id="Layer_4">
</g>
<g id="Layer_3">
	<g>
		<g>
			<line class="st4" x1="129.5" y1="18.6" x2="120.7" y2="27.4"/>
			<line class="st4" x1="129.5" y1="27.4" x2="120.7" y2="18.6"/>
		</g>
		<circle class="st4" cx="59.6" cy="22.5" r="5.9"/>
		<path class="st4" d="M125.1,3.2H93.4c0,0-0.7,0-1,0c10.9,0,19.8,8.8,19.8,19.8c0-7.1,5.8-12.9,12.9-12.9s12.9,5.8,12.9,12.9
			s-5.8,12.9-12.9,12.9c-7.1,0-12.9-5.8-12.9-12.9c0,10.9-8.8,19.8-19.8,19.8c0.4,0,32.6,0,32.8,0C136.1,42.9,145,34,145,23
			C144.9,12.1,136,3.2,125.1,3.2z"/>
		<path class="st4" d="M112.1,23L112.1,23L112.1,23c0-10.9-8.8-19.8-19.8-19.8l0,0C81.4,3.2,72.4,12,72.4,23
			c0,10.9,8.8,19.8,19.8,19.8l0,0C103.3,42.9,112.1,33.9,112.1,23z M92.3,35.6c-7.1,0-12.9-5.8-12.9-12.9S85.2,9.7,92.3,9.7
			s12.9,5.8,12.9,12.9C105.3,29.8,99.5,35.6,92.3,35.6z"/>
		<path class="st4" d="M112.1,23c0-10.9-8.8-19.8-19.8-19.8c0,0,0,0,0,0H26.8C15.9,3.2,7,12.1,7,23s8.8,19.8,19.8,19.8h65.5
			c0,0,0,0,0,0C103.3,42.8,112.1,33.9,112.1,23z M26.8,35.6c-7.1,0-12.9-5.8-12.9-12.9S19.7,9.7,26.8,9.7s12.9,5.8,12.9,12.9
			S34,35.6,26.8,35.6z M59.6,35.6c-7.1,0-12.9-5.8-12.9-12.9c-0.1-7.1,5.7-12.9,12.9-12.9c6.9,0,12.5,5.4,12.9,12.2
			c0,0.4-0.1,0.7-0.1,1.1c0,0.3,0,0.5,0,0.8C71.9,30.4,66.4,35.6,59.6,35.6z M92.3,35.6c-7.1,0-12.9-5.8-12.9-12.9
			S85.2,9.7,92.3,9.7s12.9,5.8,12.9,12.9C105.3,29.8,99.5,35.6,92.3,35.6z"/>
		<g>
			<path class="st4" d="M23.1,16.7h4.2c1.8,0,3.2,1.4,3.2,3.2c0,1.8-1.4,3.2-3.2,3.2h-2.7"/>
			<line class="st4" x1="23.1" y1="16.7" x2="23.1" y2="28.3"/>
			<line class="st4" x1="24.7" y1="23" x2="30.6" y2="28.3"/>
		</g>
		<g>
			<path class="st4" d="M89.6,16.7h3.7c1.6,0,2.8,1.2,2.8,2.8s-1.2,2.8-2.8,2.8H91"/>
			<path class="st4" d="M89.6,28.3h4.7c1.6,0,2.9-1.3,2.9-2.9c0-1.6-1.3-2.9-2.9-2.9h-3.6"/>
			<line class="st4" x1="89.6" y1="16.7" x2="89.6" y2="28.3"/>
		</g>
	</g>
</g>
</svg>
